<?xml version="1.0" encoding="utf-8"?>
<!-- Generator: Adobe Illustrator 25.2.1, SVG Export Plug-In . SVG Version: 6.00 Build 0)  -->
<svg version="1.1" id="Capa_1" xmlns="http://www.w3.org/2000/svg" xmlns:xlink="http://www.w3.org/1999/xlink" x="0px" y="0px"
	 viewBox="0 0 100 100" style="enable-background:new 0 0 100 100;" xml:space="preserve">
<style type="text/css">
	.st0{fill:#5A5A5A;}
	.st1{fill:#FFFFFF;}
	.st2{fill:#D9D2C5;}
</style>
<path class="st0" d="M75.94,88.43H23.31c-6.6,0-12-5.4-12-12V23.8c0-6.6,5.4-12,12-12h52.63c6.6,0,12,5.4,12,12v52.63
	C87.94,83.03,82.54,88.43,75.94,88.43z"/>
<g>
	<path class="st1" d="M35.93,40.98v-7.58c0-0.62,0.26-0.93,0.78-0.93h3.48c0.52,0,0.78,0.31,0.78,0.93v22.27
		c0,1.52-0.14,2.83-0.43,3.92c-0.28,1.09-0.75,1.98-1.4,2.67c-0.65,0.69-1.52,1.19-2.61,1.5c-1.09,0.31-2.42,0.47-4.01,0.47h-9.93
		c-1.61,0-2.95-0.15-4.03-0.47c-1.08-0.31-1.94-0.81-2.59-1.5c-0.65-0.69-1.12-1.58-1.4-2.67c-0.28-1.09-0.43-2.39-0.43-3.92v-6.1
		c0-1.52,0.14-2.83,0.43-3.92c0.28-1.09,0.75-1.98,1.4-2.67c0.65-0.69,1.51-1.2,2.59-1.52c1.08-0.32,2.42-0.49,4.03-0.49H35.93z
		 M32.03,59.14c0.78,0,1.42-0.08,1.92-0.23c0.5-0.15,0.89-0.41,1.19-0.76c0.3-0.35,0.5-0.83,0.62-1.42
		c0.12-0.59,0.18-1.34,0.18-2.24v-8.42H23.09c-0.76,0-1.38,0.08-1.88,0.23c-0.5,0.16-0.89,0.41-1.19,0.76
		c-0.3,0.35-0.5,0.83-0.62,1.44c-0.12,0.61-0.18,1.35-0.18,2.22v3.77c0,0.9,0.06,1.65,0.18,2.24c0.12,0.59,0.32,1.07,0.62,1.42
		c0.3,0.35,0.69,0.61,1.19,0.76c0.5,0.16,1.12,0.23,1.88,0.23H32.03z"/>
	<g>
		<path class="st2" d="M51.12,35.99c1.13,0,1.93,0.28,2.4,0.83c0.47,0.55,0.71,1.42,0.71,2.6v23.92c0,0.59-0.25,0.89-0.74,0.89
			h-3.48c-0.5,0-0.74-0.3-0.74-0.89V42.2c0-0.56-0.24-0.85-0.71-0.85h-1.93c-0.52,0-0.78-0.3-0.78-0.89v-3.59
			c0-0.59,0.26-0.89,0.78-0.89H51.12z"/>
		<path class="st2" d="M78.51,35.99c2.32,0,3.97,0.55,4.95,1.65c0.98,1.1,1.47,2.77,1.47,5v1.94c0,2.34-0.7,4.07-2.1,5.2
			c1.51,1.02,2.27,2.73,2.27,5.12v2.34c0,1.08-0.1,2.04-0.3,2.9c-0.2,0.86-0.54,1.59-1.01,2.2c-0.47,0.61-1.09,1.07-1.86,1.39
			c-0.77,0.32-1.7,0.48-2.81,0.48H64.44c-1.13,0-2.07-0.16-2.82-0.48c-0.76-0.32-1.37-0.79-1.84-1.39c-0.47-0.61-0.81-1.34-1.01-2.2
			c-0.2-0.86-0.3-1.83-0.3-2.9v-2.34c0-2.39,0.75-4.1,2.27-5.12c-1.4-1.13-2.1-2.86-2.1-5.2v-1.94c0-1.13,0.12-2.11,0.36-2.94
			c0.24-0.83,0.61-1.53,1.12-2.08c0.51-0.55,1.17-0.96,1.98-1.23c0.81-0.27,1.8-0.4,2.98-0.4H78.51z M63.5,56.44
			c0,0.86,0.19,1.49,0.57,1.88C64.45,58.7,65.1,58.9,66,58.9h11.56c0.9,0,1.55-0.19,1.94-0.58c0.39-0.39,0.59-1.01,0.59-1.88v-1.77
			c0-0.83-0.21-1.47-0.63-1.9c-0.42-0.43-1.19-0.65-2.32-0.65H66.4c-1.13,0-1.89,0.22-2.3,0.65c-0.41,0.43-0.61,1.06-0.61,1.9V56.44
			z M63.53,45.39c0,0.78,0.2,1.38,0.59,1.8c0.39,0.42,1.15,0.63,2.28,0.63h10.75c1.13,0,1.89-0.21,2.28-0.63
			c0.39-0.42,0.59-1.01,0.59-1.8v-1.49c0-0.83-0.19-1.47-0.57-1.92c-0.38-0.44-1.03-0.67-1.93-0.67H66.03
			c-0.9,0-1.54,0.22-1.93,0.67c-0.38,0.44-0.57,1.08-0.57,1.92V45.39z"/>
	</g>
</g>
</svg>
