<?xml version="1.0" encoding="utf-8"?>
<!-- Generator: Adobe Illustrator 25.2.1, SVG Export Plug-In . SVG Version: 6.00 Build 0)  -->
<svg version="1.1" id="Capa_1" xmlns="http://www.w3.org/2000/svg" xmlns:xlink="http://www.w3.org/1999/xlink" x="0px" y="0px"
	 viewBox="0 0 512 512" style="enable-background:new 0 0 512 512;" xml:space="preserve">
<style type="text/css">
	.st0{fill:#E8B133;}
</style>
<g>
	<path class="st0" d="M469.1,263.8c4.6,5.2,6.9,11.6,6.9,19.1c0,10.7-4.1,19-12.3,25.1c-8.2,6.1-19.5,9.1-33.9,9.1
		c-14.2,0-25.4-3-33.6-9.1c-8.2-6.1-12.2-14.4-12.2-25.1c0-7.6,2.2-14,6.7-19.2c4.5-5.2,10.9-8.8,19.2-11c-7-2.3-12.3-5.8-16-10.4
		c-3.7-4.6-5.6-10.3-5.6-17c0-9.7,3.8-17.4,11.3-23c7.5-5.6,17.6-8.4,30.2-8.4c12.6,0,22.8,2.8,30.4,8.5
		c7.6,5.7,11.5,13.3,11.5,22.9c0,6.6-1.9,12.2-5.6,16.9c-3.8,4.7-9.2,8.2-16.2,10.5C458.1,254.9,464.6,258.6,469.1,263.8z
		 M457.2,302.4c6.6-4.7,9.9-11.2,9.9-19.5c0-8.1-3.3-14.5-9.9-19.3c-6.6-4.7-15.8-7.1-27.4-7.1c-11.6,0-20.6,2.4-27.2,7.1
		c-6.5,4.8-9.8,11.2-9.8,19.3c0,8.2,3.2,14.7,9.7,19.5c6.5,4.8,15.6,7.1,27.3,7.1C441.5,309.5,450.6,307.2,457.2,302.4z
		 M405.7,242.8c5.7,4.3,13.8,6.4,24.1,6.4c10.3,0,18.4-2.1,24.2-6.3c5.8-4.2,8.8-10,8.8-17.3c0-7.4-3-13.3-8.9-17.6
		c-6-4.3-14-6.5-24.1-6.5c-10.1,0-18,2.1-23.9,6.4c-5.9,4.3-8.8,10.1-8.8,17.5C397.1,232.7,400,238.5,405.7,242.8z"/>
	<path class="st0" d="M362.6,194.7v121.6h-8.9V202.7H324v-8H362.6z"/>
	<path class="st0" d="M286.1,223.9c-5.5-9.4-13.1-16.7-22.7-22.1c-9.6-5.3-20.4-8-32.3-8c-10.6,0-20.3,2.1-29,6.4
		c2.6,1.8,5,3.8,7.3,5.9c6.7-2.7,14-4.1,21.8-4.1c10.2,0,19.4,2.3,27.6,6.9c8.2,4.6,14.7,11,19.5,19.2c4.7,8.2,7.1,17.3,7.1,27.4
		c0,10.1-2.4,19.2-7.1,27.4c-4.8,8.2-11.2,14.6-19.5,19.2c-8.2,4.6-17.4,6.9-27.6,6.9c-7.8,0-15.1-1.4-21.8-4.1
		c-2.3,2.1-4.7,4.1-7.3,5.9c8.8,4.3,18.4,6.4,29,6.4c11.9,0,22.7-2.7,32.3-8c9.6-5.3,17.2-12.7,22.7-22.1c5.5-9.4,8.3-19.9,8.3-31.6
		C294.3,243.8,291.6,233.3,286.1,223.9z"/>
	<path class="st0" d="M195.4,256h8.5v45.5c-5.3,5.1-11.8,9-19.4,11.6c-7.6,2.7-15.6,4-24.1,4c-12,0-22.9-2.7-32.6-8
		c-9.7-5.3-17.3-12.7-22.8-22.1c-5.5-9.4-8.3-19.9-8.3-31.6c0-11.7,2.7-22.2,8.3-31.6c5.5-9.4,13.1-16.7,22.8-22.1
		c9.7-5.3,20.6-8,32.7-8c8.9,0,17.1,1.4,24.6,4.3c7.5,2.8,13.9,7,19.2,12.4l-5.6,5.9c-5.1-5.1-10.8-8.8-17.1-11
		c-6.3-2.3-13.3-3.4-20.9-3.4c-10.4,0-19.8,2.3-28.2,6.9c-8.4,4.6-15,11-19.7,19.2c-4.8,8.2-7.1,17.3-7.1,27.4c0,10,2.4,19,7.2,27.2
		c4.8,8.2,11.4,14.6,19.7,19.3c8.3,4.7,17.7,7,28.1,7c13.9,0,25.4-3.7,34.6-11.1V256z"/>
	<path class="st0" d="M109.6,302.4c-8.2,3.9-17.6,5.9-28.1,5.9H42.9V202.7h38.6c10.6,0,19.9,2,28.1,5.9c2-2.1,4.2-4.1,6.5-5.9
		c-0.1-0.1-0.2-0.1-0.3-0.2c-9.8-5.2-21-7.8-33.6-7.8H34v121.6h48.1c12.6,0,23.8-2.6,33.6-7.8c0.1-0.1,0.2-0.1,0.3-0.2
		C113.8,306.5,111.6,304.5,109.6,302.4z"/>
</g>
</svg>
