<?xml version="1.0" encoding="utf-8"?>
<!-- Generator: Adobe Illustrator 25.2.1, SVG Export Plug-In . SVG Version: 6.00 Build 0)  -->
<svg version="1.1" id="Capa_1" xmlns="http://www.w3.org/2000/svg" xmlns:xlink="http://www.w3.org/1999/xlink" x="0px" y="0px"
	 viewBox="0 0 512 512" style="enable-background:new 0 0 512 512;" xml:space="preserve">
<style type="text/css">
	.st0{fill:#BCBCBC;}
</style>
<g>
	<path class="st0" d="M474,264c4.7,5.3,7,11.8,7,19.5c0,10.9-4.2,19.5-12.6,25.7c-8.4,6.2-20,9.3-34.6,9.3c-14.6,0-26-3.1-34.4-9.3
		c-8.3-6.2-12.5-14.8-12.5-25.7c0-7.8,2.3-14.4,6.8-19.6c4.6-5.3,11.1-9,19.6-11.3c-7.1-2.4-12.6-5.9-16.3-10.7
		c-3.8-4.7-5.7-10.5-5.7-17.4c0-9.9,3.8-17.8,11.5-23.5c7.7-5.7,18-8.6,30.9-8.6c12.9,0,23.3,2.9,31.1,8.7
		c7.8,5.8,11.7,13.6,11.7,23.5c0,6.7-1.9,12.5-5.8,17.3c-3.9,4.8-9.4,8.4-16.6,10.7C462.7,254.9,469.3,258.7,474,264z M461.8,303.5
		c6.8-4.9,10.1-11.5,10.1-19.9c0-8.3-3.4-14.9-10.1-19.7c-6.7-4.9-16.1-7.3-28.1-7.3c-11.8,0-21.1,2.4-27.8,7.3
		c-6.7,4.9-10,11.4-10,19.7c0,8.4,3.3,15,9.9,19.9c6.6,4.9,15.9,7.3,27.9,7.3C445.7,310.7,455.1,308.3,461.8,303.5z M409.1,242.5
		c5.9,4.4,14.1,6.6,24.6,6.6c10.5,0,18.8-2.2,24.8-6.5c6-4.3,9-10.2,9-17.7c0-7.6-3.1-13.6-9.1-18c-6.1-4.4-14.3-6.7-24.6-6.7
		c-10.3,0-18.4,2.2-24.4,6.6c-6,4.4-9,10.4-9,17.9C400.3,232.2,403.3,238.2,409.1,242.5z"/>
	<path class="st0" d="M365,193.3v124.4h-9.1V201.5h-30.4v-8.2H365z"/>
	<path class="st0" d="M286.8,223.2c-5.6-9.6-13.4-17.1-23.2-22.6c-9.8-5.4-20.8-8.2-33-8.2c-10.8,0-20.7,2.2-29.7,6.5
		c2.6,1.8,5.1,3.9,7.4,6c6.9-2.8,14.3-4.2,22.3-4.2c10.4,0,19.8,2.4,28.2,7.1c8.4,4.7,15,11.3,19.9,19.6c4.9,8.3,7.3,17.7,7.3,28
		c0,10.3-2.4,19.6-7.3,28c-4.9,8.4-11.5,14.9-19.9,19.6c-8.4,4.7-17.8,7.1-28.2,7.1c-8,0-15.4-1.4-22.3-4.2c-2.3,2.2-4.8,4.2-7.4,6
		c9,4.3,18.9,6.5,29.7,6.5c12.2,0,23.2-2.7,33-8.2c9.8-5.4,17.6-13,23.2-22.6c5.6-9.6,8.4-20.4,8.4-32.3
		C295.2,243.5,292.4,232.8,286.8,223.2z"/>
	<path class="st0" d="M194,256h8.7v46.5c-5.4,5.2-12,9.2-19.8,11.9c-7.8,2.7-16,4.1-24.6,4.1c-12.3,0-23.4-2.7-33.3-8.2
		c-9.9-5.4-17.6-13-23.3-22.6c-5.6-9.6-8.4-20.4-8.4-32.3c0-12,2.8-22.7,8.4-32.3c5.6-9.6,13.4-17.1,23.3-22.6
		c9.9-5.4,21.1-8.2,33.5-8.2c9.1,0,17.5,1.5,25.1,4.4c7.6,2.9,14.2,7.1,19.6,12.7l-5.7,6c-5.2-5.2-11-9-17.5-11.3
		c-6.5-2.3-13.6-3.5-21.4-3.5c-10.7,0-20.3,2.4-28.9,7.1c-8.6,4.7-15.3,11.3-20.2,19.6c-4.9,8.3-7.3,17.7-7.3,28
		c0,10.2,2.5,19.5,7.4,27.8c4.9,8.3,11.6,14.9,20.2,19.7c8.5,4.8,18.1,7.2,28.8,7.2c14.2,0,26-3.8,35.4-11.4V256z"/>
	<path class="st0" d="M106.3,303.4c-8.4,4-18,6.1-28.8,6.1H38.1v-108h39.4c10.8,0,20.4,2,28.8,6.1c2.1-2.1,4.3-4.2,6.7-6.1
		c-0.1-0.1-0.2-0.1-0.3-0.2c-10-5.3-21.5-8-34.4-8H29v124.4h49.2c12.9,0,24.4-2.7,34.4-8c0.1-0.1,0.2-0.1,0.3-0.2
		C110.6,307.6,108.4,305.6,106.3,303.4z"/>
</g>
</svg>
