<?xml version="1.0" encoding="utf-8"?>
<!-- Generator: Adobe Illustrator 25.2.1, SVG Export Plug-In . SVG Version: 6.00 Build 0)  -->
<svg version="1.1" id="Capa_1" xmlns="http://www.w3.org/2000/svg" xmlns:xlink="http://www.w3.org/1999/xlink" x="0px" y="0px"
	 viewBox="0 0 512 512" style="enable-background:new 0 0 512 512;" xml:space="preserve">
<style type="text/css">
	.st0{fill:#FFFFFF;}
</style>
<g>
	<g>
		<g>
			<path class="st0" d="M67.2,85.5h42.6c11.2,0,21.1,2.3,29.8,6.9c8.7,4.6,15.4,11,20.2,19.1c4.8,8.2,7.2,17.4,7.2,27.8
				c0,10.4-2.4,19.6-7.2,27.8c-4.8,8.2-11.6,14.5-20.2,19.1c-8.7,4.6-18.6,6.9-29.8,6.9H67.2V85.5z M109.2,186.1
				c9.9,0,18.7-2,26.3-5.9c7.6-3.9,13.4-9.5,17.5-16.5c4.1-7.1,6.2-15.2,6.2-24.3c0-9.1-2.1-17.2-6.2-24.3
				c-4.1-7.1-9.9-12.6-17.5-16.5c-7.6-3.9-16.4-5.9-26.3-5.9H75.1v93.5H109.2z"/>
		</g>
	</g>
	<g>
		<path class="st0" d="M181.6,182.1c-7.5-7.9-11.3-19.4-11.3-34.6v-62h7.8v61.7c0,13.2,3,23.1,9.1,29.7c6,6.6,14.8,9.8,26.3,9.8
			c11.4,0,20.1-3.3,26.1-9.8c6-6.6,9.1-16.5,9.1-29.7V85.5h7.8v62c0,15.2-3.8,26.7-11.4,34.6C237.6,190,227,194,213.3,194
			C199.7,194,189.1,190,181.6,182.1z"/>
	</g>
	<g>
		<g>
			<path class="st0" d="M142,312.5l-25.7-36c-3.8,0.5-7.3,0.8-10.5,0.8H75.1v35.2h-7.8V204.9h38.6c13.5,0,24.1,3.2,31.8,9.6
				c7.7,6.4,11.5,15.3,11.5,26.7c0,8.5-2.2,15.7-6.5,21.5c-4.4,5.8-10.6,9.9-18.7,12.2l26.9,37.7H142z M105.8,270.4
				c11.5,0,20.2-2.5,26.3-7.6c6-5.1,9.1-12.3,9.1-21.6c0-9.3-3-16.5-9.1-21.6c-6.1-5.1-14.8-7.6-26.3-7.6H75.1v58.4H105.8z"/>
		</g>
	</g>
	<g>
		<g>
			<path class="st0" d="M208.2,282.2h-62.4l-13.7,30.3h-8.5l49.5-107.7h7.8l49.5,107.7H222L208.2,282.2z M205.3,275.6L177,213.5
				l-28.1,62.1H205.3z"/>
		</g>
	</g>
	<g>
		<polygon class="st0" points="298.3,204.9 298.3,312.5 291.9,312.5 218.5,219 218.5,312.5 210.7,312.5 210.7,204.9 217.3,204.9 
			290.5,298.4 290.5,204.9 		"/>
	</g>
	<g>
		<path class="st0" d="M152.2,376h7.5v40.3c-4.7,4.5-10.4,7.9-17.1,10.3c-6.7,2.4-13.8,3.5-21.3,3.5c-10.7,0-20.3-2.4-28.8-7.1
			c-8.6-4.7-15.3-11.2-20.1-19.5c-4.9-8.3-7.3-17.6-7.3-28c0-10.4,2.4-19.7,7.3-28c4.9-8.3,11.6-14.8,20.1-19.5
			c8.6-4.7,18.2-7.1,29-7.1c7.9,0,15.1,1.3,21.8,3.8c6.6,2.5,12.3,6.2,17,11l-4.9,5.2c-4.5-4.5-9.6-7.8-15.1-9.8
			c-5.6-2-11.8-3-18.5-3c-9.2,0-17.6,2.1-25,6.2c-7.4,4.1-13.3,9.8-17.5,17c-4.2,7.2-6.3,15.3-6.3,24.2c0,8.8,2.1,16.8,6.4,24.1
			c4.3,7.2,10.1,12.9,17.5,17.1c7.4,4.2,15.7,6.2,24.9,6.2c12.3,0,22.5-3.3,30.6-9.8V376z"/>
	</g>
	<g>
		<g>
			<path class="st0" d="M190.3,423c-8.5-4.8-15.2-11.3-20.1-19.6c-4.9-8.3-7.3-17.6-7.3-27.8c0-10.3,2.4-19.5,7.3-27.8
				c4.9-8.3,11.6-14.8,20.1-19.6c8.5-4.8,18-7.2,28.6-7.2c10.6,0,20.1,2.4,28.6,7.1c8.5,4.7,15.2,11.2,20.1,19.5
				c4.9,8.3,7.3,17.6,7.3,28c0,10.4-2.4,19.7-7.3,28c-4.9,8.3-11.6,14.8-20.1,19.5c-8.5,4.7-18,7.1-28.6,7.1
				C208.4,430.1,198.8,427.7,190.3,423z M243.4,416.7c7.3-4.1,13-9.8,17.2-17c4.2-7.2,6.3-15.3,6.3-24.2s-2.1-17-6.3-24.2
				c-4.2-7.2-9.9-12.9-17.2-17c-7.3-4.1-15.4-6.2-24.5-6.2c-9,0-17.2,2.1-24.5,6.2c-7.3,4.1-13.1,9.8-17.3,17
				c-4.2,7.2-6.3,15.3-6.3,24.2s2.1,17,6.3,24.2c4.2,7.2,10,12.9,17.3,17c7.3,4.1,15.5,6.2,24.5,6.2
				C228,422.9,236.1,420.9,243.4,416.7z"/>
		</g>
	</g>
	<g>
		<polygon class="st0" points="430.8,453.4 36.6,453.4 36.6,59.2 430.8,59.2 430.8,185 419.7,185 419.7,70.2 47.6,70.2 47.6,442.4 
			419.7,442.4 419.7,333.1 430.8,333.1 		"/>
	</g>
	<g>
		<g>
			<polygon class="st0" points="377.5,201.6 377.5,315.8 361.4,315.8 361.4,215.8 335.6,215.8 335.6,201.6 			"/>
		</g>
	</g>
	<g>
		<g>
			<path class="st0" d="M470.9,266.7c3.5,4.7,5.2,10.3,5.2,16.8c0,6.9-1.9,12.8-5.5,17.9c-3.7,5.1-9,9-15.8,11.7
				c-6.9,2.7-14.9,4.1-24.2,4.1c-9.1,0-17.1-1.4-23.9-4.1c-6.8-2.7-12.1-6.6-15.7-11.7c-3.7-5.1-5.5-11-5.5-17.9
				c0-6.5,1.7-12.1,5.1-16.8c3.4-4.7,8.4-8.3,14.9-10.8c-5.2-2.5-9.2-5.8-11.9-10c-2.7-4.1-4.1-9-4.1-14.7c0-6.3,1.7-11.8,5.1-16.5
				c3.4-4.7,8.2-8.3,14.4-10.8c6.2-2.5,13.4-3.8,21.5-3.8c8.3,0,15.5,1.3,21.8,3.8c6.3,2.5,11.1,6.1,14.5,10.8
				c3.4,4.7,5.1,10.2,5.1,16.5c0,5.5-1.4,10.4-4.2,14.6c-2.8,4.2-6.8,7.5-12,10C462.4,258.5,467.4,262,470.9,266.7z M452,298.3
				c5.2-3.8,7.8-8.8,7.8-15.3c0-6.3-2.6-11.3-7.8-14.9c-5.2-3.6-12.4-5.5-21.4-5.5c-9,0-16.1,1.8-21.2,5.5
				c-5.1,3.6-7.7,8.6-7.7,14.9c0,6.4,2.6,11.5,7.7,15.3c5.1,3.8,12.2,5.6,21.2,5.6C439.6,303.9,446.8,302.1,452,298.3z M412.3,218.5
				c-4.5,3.3-6.7,7.8-6.7,13.5c0,5.7,2.2,10.1,6.6,13.4c4.4,3.3,10.5,4.9,18.4,4.9c7.9,0,14.2-1.6,18.7-4.9
				c4.5-3.3,6.8-7.7,6.8-13.4c0-5.7-2.3-10.1-6.9-13.5c-4.6-3.3-10.8-5-18.5-5C422.9,213.5,416.8,215.2,412.3,218.5z"/>
		</g>
	</g>
</g>
</svg>
